<svg xmlns="http://www.w3.org/2000/svg" viewBox="0 0 461.65 454.72"><defs><style>.cls-1{fill:#4062bb;}.cls-2{fill:#fff;}.cls-3{fill:#1a181b;}.cls-4{fill:#fdc758;}</style></defs><g id="Calque_2" data-name="Calque 2"><g id="Calque_7" data-name="Calque 7"><polygon class="cls-1" points="460.81 355.15 351.89 355.15 346.89 346.4 460.81 355.15"/><path class="cls-1" d="M460.81,355.15s0,.12,0,.34A.37.37,0,0,0,460.81,355.15Z"/><path class="cls-1" d="M460.85,355.49c0-.22,0-.34,0-.34H351.89l-5-8.75-1.19-2.1V273.8H265.45v50.25H119.28c-.43.61-.31,2,.19,3.79h0c.1.35.21.72.34,1.11l-.51,0-4-.31-15.14,65.67-1.56,6.79c2.57,4.1,6.56,7.84,11.64,11.25,42.69,28.67,162.25,33.92,162.25,33.92l18-27.75,18,1.57h0l3,.26s94.75,11.54,149.25-45.55C462.52,373,461.09,357.92,460.85,355.49Zm-66.22,5.94h16.63v9.17H394.63Zm-93.88-66.65h13.1v20.81h-13.1Z"/><rect class="cls-2" x="394.63" y="361.43" width="16.63" height="9.17"/><rect class="cls-2" x="300.75" y="294.78" width="13.1" height="20.81"/><path class="cls-3" d="M460.9,355.15h-109c-2,0-20.46-41.71-20.46-41.71L311,345.77l-3.67-3.2L329,306.79h67.68v-4.72h10.07l.39,4.32h26.5l9.92,17.75Z"/><polygon class="cls-3" points="351.96 273.8 260.65 273.8 306.31 147.9 351.96 273.8"/><polygon class="cls-3" points="265.45 278.91 265.45 324.05 111.88 324.05 121.76 308.68 140.9 278.91 265.45 278.91"/><path class="cls-4" d="M232,167.11a39.63,39.63,0,1,1-39.62-39.63A39.62,39.62,0,0,1,232,167.11Z"/><path class="cls-3" d="M229.28.51l-.49,2-.53,2c-.35,1.35-.69,2.71-1.07,4.06-.79,2.67-1.62,5.36-2.52,8s-2,5.31-3,7.94c-.57,1.31-1.15,2.61-1.77,3.9s-1.23,2.58-1.89,3.86a128.76,128.76,0,0,1-19.89,28.18c-1.93,2.15-4,4.2-6,6.2-1.05,1-2.09,2-3.15,3l-3.21,2.89c-2.2,1.85-4.4,3.71-6.67,5.47-1.13.89-2.25,1.78-3.41,2.63l-3.48,2.53c-4.69,3.29-9.47,6.44-14.4,9.3-1.22.75-2.47,1.42-3.7,2.13s-2.46,1.43-3.73,2.09c-2.54,1.3-5.05,2.66-7.64,3.88a203.41,203.41,0,0,1-65.3,19.48,185.16,185.16,0,0,1-33.93.92c-2.81-.19-5.62-.43-8.42-.77l-4.18-.55c-1.39-.22-2.78-.44-4.16-.7-2.77-.49-5.52-1-8.24-1.67S13,116,10.32,115.1l.15-1.16a197.44,197.44,0,0,0,32.71,1,230.41,230.41,0,0,0,32.5-3.76,235,235,0,0,0,61.81-21c4.88-2.43,9.67-5.05,14.41-7.75s9.36-5.6,13.91-8.61,8.95-6.25,13.23-9.62,8.4-7,12.34-10.71a149.17,149.17,0,0,0,21.1-24.87,153.68,153.68,0,0,0,8.43-14c2.59-4.81,4.9-9.77,7.32-14.7Z"/><path class="cls-3" d="M28,173.32l-.66,1c-.87-.59-1.77-1.16-2.6-1.81s-1.66-1.3-2.43-2c-1.56-1.41-3-2.91-4.43-4.46a84.14,84.14,0,0,1-7.58-10,99.14,99.14,0,0,1-6.09-10.95c-.45-.94-.86-1.9-1.27-2.86s-.8-1.94-1.16-2.91a48.58,48.58,0,0,1-1.8-6L1.12,133c1.39.68,2.45,1.35,3.54,2s2,1.3,3,1.95a53,53,0,0,1,5,4,43.32,43.32,0,0,1,7.42,8.77A46,46,0,0,1,25,159.88c.3,1,.63,1.86.87,2.91.07.25.13.52.2.76s.15.49.21.76c.12.53.26,1,.37,1.6s.25,1.09.36,1.66.24,1.14.33,1.78C27.59,170.56,27.85,171.79,28,173.32Z"/><path class="cls-3" d="M449.79,101.88l-.25,1.14c-8.81-1.82-17.74-3.19-26.65-4.66s-17.8-3.07-26.67-4.87c-17.71-3.64-35.3-8.27-52.14-15.1-1.06-.41-2.09-.87-3.14-1.31s-2.09-.88-3.12-1.36-2.08-.92-3.1-1.41l-3.07-1.49q-6.09-3.07-11.95-6.5A169.34,169.34,0,0,1,297.26,50.9a129,129,0,0,1-10.06-9.21,134.31,134.31,0,0,1-9-10.21A229.34,229.34,0,0,1,262.91,9l1-.62,1.29,1.18,1.24,1.21,2.5,2.39,4.88,4.8c3.21,3.19,6.41,6.29,9.63,9.26,1.61,1.49,3.26,2.91,4.87,4.34s3.31,2.76,5,4.11,3.36,2.62,5.06,3.89,3.43,2.49,5.17,3.68c.89.58,1.75,1.2,2.63,1.78s1.76,1.18,2.67,1.73,1.79,1.13,2.71,1.68,1.79,1.13,2.71,1.67c1.82,1.11,3.67,2.17,5.55,3.2s3.72,2.13,5.62,3.14l5.72,3,1.44.75L334,61c.95.47,1.88,1,2.85,1.42,1.92.91,3.83,1.83,5.77,2.72,1,.46,1.94.9,2.93,1.32s2,.87,2.94,1.27c7.91,3.34,16,6.35,24.32,9.13L379,78.9c2.09.66,4.18,1.34,6.3,2s4.22,1.32,6.34,2L398,84.75l12.88,3.81c2.17.62,4.32,1.29,6.49,1.94l3.25,1,3.25,1c2.17.67,4.35,1.35,6.52,2.07s4.34,1.44,6.5,2.21C441.26,98.29,445.58,100,449.79,101.88Z"/><path class="cls-3" d="M460.81,355.15c-1.83-1.82-3.61-3.39-5.35-5a55.18,55.18,0,0,1-5.1-5.23c-3.34-4-6.49-8.09-9.44-12.35a160.42,160.42,0,0,1-14.51-26.19c-.16-.34-.31-.69-.46-1a166,166,0,0,1-9.56-29.58,177.94,177.94,0,0,1-4-30.83,213.28,213.28,0,0,1,1.17-31.06,228.39,228.39,0,0,1,5.16-30.62,168.06,168.06,0,0,1,9.95-29.44,113.53,113.53,0,0,1,16.44-26.34l.9.75-1.77,3.49c-.57,1.16-1.12,2.33-1.64,3.51s-1.06,2.33-1.57,3.5l-.75,1.76-.71,1.76c-.92,2.36-1.85,4.7-2.65,7.09s-1.62,4.74-2.32,7.14c-.39,1.18-.71,2.39-1.06,3.58l-1,3.6c-.63,2.41-1.23,4.81-1.75,7.24-1.12,4.83-2,9.7-2.82,14.58s-1.47,9.78-2,14.7c-.11,1.24-.27,2.46-.4,3.7l-.35,3.69c-.21,2.47-.39,5-.56,7.42s-.32,5-.46,7.44l-.29,7.41c-.18,4.88-.09,9.76,0,14.62a198.78,198.78,0,0,0,19.6,79.68q1.2,2.5,2.47,5c2.29,4.47,4.77,8.88,7.39,13.27S457.92,350.75,460.81,355.15Z"/><path class="cls-3" d="M122.54,289.34c0,5.14-.2,10.31-.54,15.49-.08,1.28-.14,2.57-.24,3.85v0l-.36,3.88c-.22,2.59-.55,5.17-.84,7.75-.17,1.24-.34,2.48-.52,3.71s-.36,2.53-.57,3.79c0,0,0,0,0,0,0,.35-.11.71-.17,1.07-.36,2.27-.76,4.54-1.21,6.79a282.15,282.15,0,0,1-7.52,29.89c-.73,2.45-1.55,4.87-2.33,7.31s-1.63,4.85-2.5,7.26c-1.69,4.83-3.59,9.62-5.63,14.38a2.51,2.51,0,0,0,0-.27c.85-4.88,1.42-9.83,2-14.77s1.12-10.06,1.94-15c1.69-10,3.25-19.92,4.42-29.92s1.94-20.06,2.25-30.12.21-20.15.08-30.24l-.16-7.56c-.07-2.5-.25-5-.51-7.47a92.88,92.88,0,0,0-2.86-14.68,101.1,101.1,0,0,0-12.37-27.22,127.64,127.64,0,0,0-19.19-23.07,131.68,131.68,0,0,0-11.44-9.8c-2-1.51-4-3-6.14-4.34a47,47,0,0,0-6.49-3.67l.43-1.09a26.2,26.2,0,0,1,3.81,1.12c1.23.45,2.45.94,3.65,1.45s2.38,1.07,3.56,1.64,2.34,1.18,3.48,1.81c2.3,1.26,4.56,2.59,6.75,4s4.36,2.93,6.47,4.52c1,.79,2.1,1.6,3.13,2.43s2,1.68,3,2.55c2,1.74,4,3.53,5.85,5.43s3.72,3.84,5.5,5.86,3.45,4.13,5.08,6.3,3.17,4.4,4.62,6.72,2.84,4.67,4.13,7.1,2.44,4.95,3.52,7.5a82,82,0,0,1,2.91,7.8,94.52,94.52,0,0,1,3.73,16.35c.36,2.78.62,5.57.76,8.37.15,2.61.22,5.12.3,7.68s.12,5.12.18,7.68S122.56,286.77,122.54,289.34Z"/><path class="cls-3" d="M110.56,411.86a91.73,91.73,0,0,0,12.12,4.07l6.19,1.71,6.22,1.64c4.15,1.06,8.29,2.15,12.46,3.16s8.3,2.08,12.45,3.11c16.61,4.08,33.21,8.13,49.71,11.71,4.12.91,8.24,1.77,12.33,2.54s8.16,1.54,12.14,2.09a137.49,137.49,0,0,0,22.88,1.22,46.83,46.83,0,0,0,5.16-.48c.83-.13,1.64-.26,2.44-.41s1.58-.34,2.32-.57a24.24,24.24,0,0,0,4.32-1.6,20.35,20.35,0,0,0,4-2.43,31.39,31.39,0,0,0,7.19-8.17c2.24-3.39,5.41-7.11,8.06-11h0c-.94,4.16-1.64,8.45-2.92,12.62a34.06,34.06,0,0,1-6,11.71,28.68,28.68,0,0,1-10.53,8,43.88,43.88,0,0,1-12.72,3.39,78.27,78.27,0,0,1-13.07.39,121.53,121.53,0,0,1-12.93-1.49c-8.55-1.42-16.94-3.4-25.29-5.55-16.69-4.32-33.16-9.38-49.48-14.89q-6.12-2.07-12.19-4.26t-12.09-4.58c-4-1.58-8-3.22-11.93-5-2-.88-3.93-1.8-5.86-2.77a43.65,43.65,0,0,1-5.66-3.3Z"/><path class="cls-3" d="M308.54,420.06c1.85-.12,3.64-.06,5.45-.17.91,0,1.8,0,2.69,0s1.78-.05,2.67-.07l1.32,0,1.32-.05,2.63-.07c1.75-.11,3.48-.13,5.21-.23,6.91-.36,13.67-.93,20.37-1.78,3.35-.34,6.69-.91,10-1.37s6.64-1.11,10-1.67c1.66-.29,3.3-.69,5-1s3.31-.64,5-1q4.95-1,9.91-2.14c.82-.19,1.57-.4,2.36-.59s1.57-.34,2.35-.56l2.33-.62c.78-.2,1.54-.45,2.31-.68,1.55-.45,3.07-.94,4.62-1.4s3.05-1,4.55-1.61c.75-.29,1.53-.52,2.27-.82l2.26-.87c1.49-.62,3-1.25,4.48-1.89s3-1.32,4.45-2c.72-.37,1.46-.71,2.21-1.06s1.46-.73,2.2-1.1a183.51,183.51,0,0,0,17.32-10.13c1.44-.92,2.86-1.89,4.27-2.88.73-.49,1.43-1,2.14-1.49l1.06-.77,1.07-.77c.72-.51,1.42-1,2.13-1.57s1.43-1.06,2.14-1.6,1.45-1.07,2.17-1.63l1.07-.83,1.1-.83h0c-4,5.87-7.62,12-12.67,17a115.23,115.23,0,0,1-55.68,30.05c-6.93,1.48-13.93,2.7-21,3.58a184,184,0,0,1-21.24,1.4,153.91,153.91,0,0,1-21.24-1.29c-7-1-13.68-3.62-20.52-5.46Z"/><path class="cls-2" d="M422.89,98.36c-8.91-1.47-17.8-3.07-26.67-4.87-17.71-3.64-35.3-8.27-52.14-15.1-1.06-.41-2.09-.87-3.14-1.31s-2.09-.88-3.12-1.36-2.08-.92-3.1-1.41l-3.07-1.49q-6.09-3.07-11.95-6.5A169.34,169.34,0,0,1,297.26,50.9a129,129,0,0,1-10.06-9.21,134.31,134.31,0,0,1-9-10.21A229.34,229.34,0,0,1,262.91,9L228.23,0l1.05.51-.49,2-.53,2c-.35,1.35-.69,2.71-1.07,4.06-.79,2.67-1.62,5.36-2.52,8s-2,5.31-3,7.94c-.57,1.31-1.15,2.61-1.77,3.9s-1.23,2.58-1.89,3.86a128.76,128.76,0,0,1-19.89,28.18c-1.93,2.15-4,4.2-6,6.2-1.05,1-2.09,2-3.15,3l-3.21,2.89c-2.2,1.85-4.4,3.71-6.67,5.47-1.13.89-2.25,1.78-3.41,2.63l-3.48,2.53c-4.69,3.29-9.47,6.44-14.4,9.3-1.22.75-2.47,1.42-3.7,2.13s-2.46,1.43-3.73,2.09c-2.54,1.3-5.05,2.66-7.64,3.88a203.41,203.41,0,0,1-65.3,19.48,185.16,185.16,0,0,1-33.93.92c-2.81-.19-5.62-.43-8.42-.77l-4.18-.55c-1.39-.22-2.78-.44-4.16-.7-2.77-.49-5.52-1-8.24-1.67S13,116,10.32,115.1l.15-1.16L0,133.26,1.12,133c1.39.68,2.45,1.35,3.54,2s2,1.3,3,1.95a53,53,0,0,1,5,4,43.32,43.32,0,0,1,7.42,8.77A46,46,0,0,1,25,159.88c.3,1,.63,1.86.87,2.91.07.25.13.52.2.76s.15.49.21.76c.12.53.26,1,.37,1.6s.25,1.09.36,1.66.24,1.14.33,1.78c.22,1.21.48,2.44.65,4l24.06,2a26.2,26.2,0,0,1,3.81,1.12c1.23.45,2.45.94,3.65,1.45s2.38,1.07,3.56,1.64,2.34,1.18,3.48,1.81c2.3,1.26,4.56,2.59,6.75,4s4.36,2.93,6.47,4.52c1,.79,2.1,1.6,3.13,2.43s2,1.68,3,2.55c2,1.74,4,3.53,5.85,5.43s3.72,3.84,5.5,5.86,3.45,4.13,5.08,6.3,3.17,4.4,4.62,6.72,2.84,4.67,4.13,7.1,2.44,4.95,3.52,7.5a82,82,0,0,1,2.91,7.8,94.52,94.52,0,0,1,3.73,16.35c.36,2.78.62,5.57.76,8.37.15,2.61.22,5.12.3,7.68s.12,5.12.18,7.68,0,5.14,0,7.71c0,5.14-.2,10.31-.54,15.49-.08,1.28-.14,2.57-.24,3.85l19.14-29.77H265.45V273.8h-4.8l45.66-125.9L352,273.8H345.7v33h51v-4.72h10.07l.39,4.32h19.27c-.16-.34-.31-.69-.46-1a166,166,0,0,1-9.56-29.58,177.94,177.94,0,0,1-4-30.83,213.28,213.28,0,0,1,1.17-31.06,228.39,228.39,0,0,1,5.16-30.62,168.06,168.06,0,0,1,9.95-29.44,113.53,113.53,0,0,1,16.44-26.34l.9.75L449.54,103C440.73,101.2,431.8,99.83,422.89,98.36ZM192.37,206.73A39.63,39.63,0,1,1,232,167.11,39.62,39.62,0,0,1,192.37,206.73Z"/></g></g></svg>