<svg xmlns="http://www.w3.org/2000/svg" viewBox="0 0 953.2 940.44"><defs><style>.cls-1{fill:#4062bb;}.cls-2{fill:#1a181b;}.cls-3{fill:#fdc758;}</style></defs><g id="Calque_2" data-name="Calque 2"><g id="Calque_7" data-name="Calque 7"><polygon class="cls-1" points="953.03 734.51 727.76 734.51 717.43 716.41 953.03 734.51"/><path class="cls-1" d="M727.77,734.52l-10.33-18.1L715,712.07V566.26H549V670.2H246.7c-1.06,1.51-.52,5.18,1.1,10.15l-9.36-.73L207.05,816c34.45,6.47,56.58,12.15,88.29,18.53,45.72,9.2,178.83,62.36,243.73,37.82,30.87-11.67,30.22-44.56,61.77-56.35,37.33-14,84.46,14.61,149.1,7,85.29-10,156.72-54.84,203.26-88.53Zm-78.68-81.83H622v-43h27.08ZM816.16,766.46v-19h34.4v19Z"/><path class="cls-2" d="M685.44,648.25s38.25,86.26,42.33,86.26H953.2L896.84,633.67H842l-.82-8.94H820.4v9.76h-140l-44.89,74,7.59,6.62Z"/><polygon class="cls-2" points="539.07 566.26 727.91 566.26 633.49 305.89 539.07 566.26"/><polygon class="cls-2" points="548.99 576.84 548.99 670.19 231.39 670.19 291.41 576.84 548.99 576.84"/><circle class="cls-3" cx="397.84" cy="345.6" r="81.94"/><path class="cls-2" d="M474.19,1.06l-1,4.21-1.09,4.17c-.73,2.79-1.44,5.6-2.21,8.39-1.63,5.53-3.35,11.08-5.22,16.63s-4,11-6.31,16.43c-1.18,2.69-2.38,5.39-3.65,8.06s-2.55,5.34-3.91,8a266,266,0,0,1-41.15,58.29c-4,4.45-8.19,8.7-12.49,12.83-2.17,2.05-4.31,4.13-6.5,6.15l-6.65,6c-4.55,3.82-9.1,7.67-13.79,11.31-2.34,1.84-4.66,3.7-7.05,5.45l-7.2,5.22c-9.7,6.81-19.58,13.32-29.78,19.24-2.51,1.55-5.1,2.94-7.65,4.41s-5.09,3-7.71,4.31c-5.26,2.7-10.45,5.51-15.8,8A420.82,420.82,0,0,1,160,248.43a382.18,382.18,0,0,1-70.17,1.91c-5.82-.39-11.62-.9-17.4-1.61l-8.66-1.12c-2.87-.47-5.74-.91-8.6-1.45-5.72-1-11.41-2.12-17-3.46S26.84,239.87,21.34,238l.31-2.39a411,411,0,0,0,67.65,2.18A477.39,477.39,0,0,0,156.52,230a486.22,486.22,0,0,0,127.83-43.35c10.1-5,20-10.46,29.81-16s19.36-11.59,28.77-17.82,18.49-12.92,27.35-19.89,17.37-14.38,25.53-22.15a308.88,308.88,0,0,0,43.64-51.43,320.35,320.35,0,0,0,17.43-29C462.24,20.45,467,10.2,472,0Z"/><path class="cls-2" d="M2.33,275c2.86,1.41,5.06,2.8,7.32,4.15s4.17,2.7,6.19,4a110.94,110.94,0,0,1,10.38,8.23,90.48,90.48,0,0,1,15.36,18.14,95.34,95.34,0,0,1,10.18,21.13c.63,2,1.31,3.86,1.82,6,.13.53.26,1.08.41,1.59s.31,1,.42,1.56c.25,1.09.54,2.16.78,3.3s.5,2.26.73,3.44.49,2.37.69,3.68c.46,2.51,1,5.06,1.35,8.22l-1.38,2c-1.79-1.22-3.65-2.39-5.36-3.73s-3.44-2.69-5-4.16c-3.22-2.92-6.25-6-9.17-9.24a176.16,176.16,0,0,1-15.68-20.65A205.1,205.1,0,0,1,8.75,300c-.94-1.94-1.79-3.93-2.63-5.93s-1.64-4-2.4-6A103.7,103.7,0,0,1,0,275.61Z"/><path class="cls-2" d="M545.78,17.37l2.67,2.45L551,22.31l5.17,5,10.07,9.93c6.65,6.59,13.28,13,19.94,19.14,3.32,3.08,6.73,6,10.07,9s6.84,5.7,10.24,8.5,7,5.42,10.47,8,7.09,5.16,10.7,7.63c1.84,1.19,3.61,2.47,5.44,3.68s3.64,2.43,5.51,3.58,3.71,2.34,5.61,3.46,3.71,2.34,5.61,3.46c3.76,2.29,7.59,4.48,11.47,6.63s7.7,4.39,11.63,6.49l11.84,6.27,3,1.57,2.94,1.48c2,1,3.9,2,5.89,2.94,4,1.88,7.94,3.79,11.95,5.63,2,1,4,1.84,6,2.72s4,1.81,6.1,2.63c16.34,6.9,33.13,13.14,50.28,18.88l12.9,4.28c4.33,1.38,8.66,2.77,13,4.08s8.72,2.73,13.11,4.07l13.21,3.95,26.64,7.89c4.47,1.27,8.92,2.67,13.4,4l6.73,2,6.72,2.1c4.49,1.39,9,2.79,13.47,4.29s9,3,13.46,4.56c9,3.14,17.89,6.58,26.6,10.57l-.52,2.35c-18.23-3.77-36.69-6.6-55.11-9.64s-36.83-6.33-55.16-10.07c-36.62-7.52-73-17.09-107.84-31.22-2.19-.85-4.33-1.81-6.5-2.71s-4.32-1.83-6.45-2.81-4.29-1.91-6.41-2.92l-6.34-3.09q-12.6-6.34-24.73-13.44a351.12,351.12,0,0,1-46.41-31.88,271.51,271.51,0,0,1-20.8-19A274.78,274.78,0,0,1,575.32,65.1c-11.69-14.72-21.78-30.54-31.58-46.44Z"/><path class="cls-2" d="M922.33,265.21l-3.65,7.22c-1.19,2.4-2.32,4.82-3.41,7.25s-2.19,4.82-3.23,7.25l-1.55,3.62L909,294.2c-1.91,4.89-3.81,9.72-5.48,14.65s-3.34,9.81-4.8,14.77c-.79,2.45-1.46,4.95-2.19,7.41l-2,7.46c-1.31,5-2.55,9.94-3.62,15-2.32,10-4.13,20.07-5.83,30.15s-3,20.23-4.1,30.42c-.23,2.55-.55,5.09-.82,7.63l-.74,7.65c-.43,5.11-.79,10.22-1.15,15.34s-.66,10.25-.95,15.38l-.61,15.32c-.36,10.1-.18,20.19.1,30.25a409,409,0,0,0,21.59,118.46,414.25,414.25,0,0,0,24.05,56.62c4.73,9.25,9.86,18.37,15.29,27.44s9.3,17.29,15.28,26.41h0c-7.55-7.53-14.73-12.95-21.62-21.15S918,696.65,911.9,687.82a333.17,333.17,0,0,1-31-56.3,344.7,344.7,0,0,1-19.78-61.18,369.27,369.27,0,0,1-8.35-63.77c-1-21.46.26-42.94,2.43-64.22A471.57,471.57,0,0,1,865.9,379a346.25,346.25,0,0,1,20.58-60.88c8.93-19.5,20.07-38.1,34-54.47Z"/><path class="cls-2" d="M107.72,362.54a52.53,52.53,0,0,1,7.87,2.32c2.54.92,5.06,1.93,7.55,3s4.93,2.23,7.36,3.41,4.83,2.43,7.2,3.74c4.75,2.59,9.42,5.35,14,8.33s9,6.06,13.37,9.35c2.19,1.63,4.35,3.31,6.49,5s4.21,3.49,6.28,5.29c4.14,3.59,8.23,7.29,12.1,11.22s7.7,7.94,11.37,12.11,7.13,8.56,10.5,13,6.56,9.11,9.57,13.89,5.86,9.68,8.54,14.7,5,10.22,7.28,15.5a171.55,171.55,0,0,1,6,16.14,195.05,195.05,0,0,1,7.71,33.8c.73,5.75,1.28,11.53,1.58,17.33.31,5.38.45,10.58.61,15.88s.25,10.59.38,15.88,0,10.62,0,15.94q0,16-1.13,32c-.17,2.68-.28,5.35-.5,8l-.74,8c-.46,5.35-1.14,10.7-1.73,16-1.44,10.66-3,21.27-5.11,31.78a589.08,589.08,0,0,1-15.55,61.8c-1.5,5.07-3.22,10.09-4.81,15.13s-3.39,10-5.17,15c-3.5,10-7.43,19.89-11.65,29.73h0c3.6-20.57,4.78-41.6,8.17-62.2s6.72-41.19,9.14-61.89,4-41.48,4.65-62.3.43-41.67.16-62.53l-.32-15.64c-.15-5.16-.53-10.31-1.07-15.44a190.16,190.16,0,0,0-5.91-30.37,209.05,209.05,0,0,0-25.58-56.29,262.77,262.77,0,0,0-39.7-47.72A271.41,271.41,0,0,0,133,381.36c-4.14-3.14-8.37-6.15-12.71-9a97.64,97.64,0,0,0-13.41-7.59Z"/><path class="cls-2" d="M228.66,851.8c8,3.62,16.58,5.92,25.05,8.41l12.82,3.53,12.85,3.4c8.6,2.18,17.16,4.44,25.77,6.54s17.18,4.29,25.76,6.42c34.35,8.45,68.68,16.81,102.81,24.21q12.78,2.85,25.5,5.26c8.46,1.6,16.86,3.19,25.09,4.33,16.43,2.08,32.62,3.17,47.34,2.53a102.56,102.56,0,0,0,10.66-1c1.72-.28,3.39-.54,5.05-.85s3.26-.71,4.79-1.18a49.82,49.82,0,0,0,8.93-3.31,41.82,41.82,0,0,0,8.23-5c5.34-4,10.28-9.83,14.86-16.9s11.19-14.71,16.67-22.66h0c-1.93,8.61-3.39,17.46-6.05,26.1a70.27,70.27,0,0,1-12.36,24.22,59,59,0,0,1-21.77,16.57,90.09,90.09,0,0,1-26.31,7,160.79,160.79,0,0,1-27,.81,251.49,251.49,0,0,1-26.74-3.07c-17.68-2.94-35-7-52.31-11.47-34.51-8.95-68.58-19.41-102.32-30.8q-12.66-4.29-25.22-8.81t-25-9.47c-8.28-3.28-16.53-6.66-24.68-10.3-4.08-1.82-8.13-3.7-12.12-5.73a88,88,0,0,1-11.7-6.82Z"/><path class="cls-2" d="M638.11,868.75c3.82-.25,7.53-.13,11.28-.34,1.87-.07,3.71,0,5.55-.1s3.69-.1,5.52-.14l2.74-.06c.91,0,1.83-.08,2.73-.1l5.44-.15c3.62-.22,7.2-.26,10.77-.48,14.29-.75,28.28-1.92,42.13-3.68,6.93-.7,13.82-1.88,20.7-2.82s13.73-2.29,20.58-3.46c3.42-.6,6.83-1.43,10.25-2s6.84-1.33,10.26-2.06c6.82-1.42,13.67-2.91,20.5-4.42,1.69-.38,3.25-.82,4.88-1.22s3.25-.71,4.85-1.17l4.83-1.26c1.61-.43,3.19-.95,4.78-1.41,3.19-.93,6.35-2,9.54-2.91,3.14-1.1,6.32-2.09,9.42-3.32,1.55-.6,3.16-1.08,4.7-1.7l4.68-1.81q4.62-1.9,9.25-3.89c3.11-1.29,6.14-2.73,9.2-4.16,1.5-.77,3-1.48,4.57-2.2s3-1.51,4.56-2.27a380.31,380.31,0,0,0,35.82-21c3-1.91,5.91-3.91,8.84-6,1.5-1,2.94-2.05,4.42-3.08l2.19-1.59c.74-.52,1.49-1,2.22-1.58,1.48-1.06,2.92-2.16,4.4-3.25s3-2.18,4.42-3.32,3-2.21,4.48-3.35l2.22-1.73,2.29-1.72h0c-8.25,12.15-15.77,24.84-26.22,35.19a238.35,238.35,0,0,1-115.15,62.14c-14.34,3.05-28.8,5.58-43.36,7.41a381.3,381.3,0,0,1-43.91,2.89,319.59,319.59,0,0,1-43.94-2.66c-14.55-2-28.3-7.49-42.43-11.3Z"/></g></g></svg>