<svg xmlns="http://www.w3.org/2000/svg" viewBox="0 0 131.99 52.43"><defs><style>.cls-1{fill:#fff;}</style></defs><g id="Calque_2" data-name="Calque 2"><g id="Calque_1-2" data-name="Calque 1"><path d="M65.32,52.42h-.4C22.89,52.43,0,26.21,0,26.21S27.11,1.13,64.55,0a26.21,26.21,0,0,0,.77,52.38Z"/><path d="M66,42.63A16.4,16.4,0,0,1,49.8,23.55a9.41,9.41,0,1,0,12.39-13.3A15.9,15.9,0,0,1,66,9.8a16.42,16.42,0,0,1,0,32.83Z"/><path d="M132,26.21S104.88,51.3,67.44,52.39A26.21,26.21,0,0,0,66.67,0h.41C109.1,0,132,26.21,132,26.21Z"/><path class="cls-1" d="M66.57,0q-1,0-1.92,0c.44,0,.9,0,1.35,0Z"/><path class="cls-1" d="M65.43,52.42l1.92,0c-.45,0-.9,0-1.35,0Z"/><path class="cls-1" d="M82.41,26.21A16.42,16.42,0,1,1,49.8,23.55a9.41,9.41,0,1,0,12.39-13.3A15.9,15.9,0,0,1,66,9.8,16.41,16.41,0,0,1,82.41,26.21Z"/><path d="M82.41,26.21A16.42,16.42,0,1,1,49.8,23.55a9.41,9.41,0,1,0,12.39-13.3A15.9,15.9,0,0,1,66,9.8,16.41,16.41,0,0,1,82.41,26.21Z"/></g></g></svg>