<svg xmlns="http://www.w3.org/2000/svg" viewBox="0 0 148.09 89.89"><g id="Calque_2" data-name="Calque 2"><g id="Calque_1-2" data-name="Calque 1"><path d="M147.7,29.64h0L138.74,0H125.06l6.57,32v0a8.24,8.24,0,0,1-16.45,0L111.54,0H96.45l2.27,32h0a8.25,8.25,0,0,1-16.45.19,1.27,1.27,0,0,0,0-.2L81.14,0H66.42l-.6,32a8.25,8.25,0,0,1-16.46,0L51.64,0H36.54L32.91,32h0a8,8,0,0,1-8.23,7.71A8,8,0,0,1,16.46,32v0L23,0H9.35l-9,29.64h0A7.21,7.21,0,0,0,0,32a8,8,0,0,0,8.22,7.72,8.61,8.61,0,0,0,1.36-.11V89.89H22.3v-34H41.14V89.89H138.5V39.58a8.71,8.71,0,0,0,1.36.11A8,8,0,0,0,148.09,32,7.21,7.21,0,0,0,147.7,29.64ZM124.32,83H56.67V47.23h67.65Z"/></g></g></svg>