<svg xmlns="http://www.w3.org/2000/svg" viewBox="0 0 118.53 145.9"><g id="Calque_2" data-name="Calque 2"><g id="Calque_1-2" data-name="Calque 1"><path d="M101.9,35.57a36.39,36.39,0,0,1-3.77-6.91C90,10.13,77-.07,59.06,0,40.74.07,27.6,10.64,19.63,29.78a27.14,27.14,0,0,1-3.26,5.9,8.51,8.51,0,0,0-4.9,7.68v17a8.3,8.3,0,0,0,1.09,4.14A8.5,8.5,0,0,0,20,68.81h.85a8.37,8.37,0,0,0,3.5-.76c6.08,4.35,12.84,5.82,19.83,6.33a19.74,19.74,0,0,1,3.69.61,0,0,0,0,0,0,0,3.78,3.78,0,0,0,.26.43h0a4.89,4.89,0,0,0,4,2.15H54.8l.27,0,2.48,0h2.72c1.58,0,3.17,0,4.75,0a4.93,4.93,0,0,0,.55,0l.3,0a4.65,4.65,0,0,0,4.25-4.66V71.45a4.94,4.94,0,0,0-4.92-4.93H52.15a4.9,4.9,0,0,0-4.08,2.19h0a20.4,20.4,0,0,1-7.19.09,33,33,0,0,1-12.71-4.27,8.38,8.38,0,0,0,1.12-4.19v-17a8.45,8.45,0,0,0-2.66-6.15l-.09-.08A23.64,23.64,0,0,1,31.9,18.86C46.64,1.25,71.09,1.12,86.05,18.52a26.28,26.28,0,0,1,2.73,3.82,24,24,0,0,1,3,15,.12.12,0,0,1,0,0,8.45,8.45,0,0,0-2.47,6v17a8.46,8.46,0,0,0,2.59,6.08,6.3,6.3,0,0,0,5.1,2.86c.88,0,1.76,0,2.64,0A6.24,6.24,0,0,0,105.66,65a8.46,8.46,0,0,0,1.4-4.65v-17A8.49,8.49,0,0,0,101.9,35.57Z"/><path d="M118.53,124.21h0c0,2.76.08,5.52,0,8.27A13.77,13.77,0,0,1,105,145.9h-.78l-90.41,0A13.76,13.76,0,0,1,.2,134.6a10.77,10.77,0,0,1-.2-2.27c.06-6.22-.13-12.47.29-18.67.59-8.59,4.52-15.79,10.31-22A61.39,61.39,0,0,1,22,81.76c2.16-1.41,4.5-2.57,6.79-3.77a3.74,3.74,0,0,1,.88-.34A36.33,36.33,0,0,0,59.27,92.4,36.29,36.29,0,0,0,88.88,77.67a5.72,5.72,0,0,1,.68.28,54.46,54.46,0,0,1,24.57,22.32c3.31,5.7,4.46,12,4.4,18.55C118.52,120.62,118.53,122.41,118.53,124.21Z"/><line x1="13.8" y1="145.87" x2="13.43" y2="145.87"/></g></g></svg>