<svg xmlns="http://www.w3.org/2000/svg" viewBox="0 0 116.13 116.13"><defs><style>.cls-1{stroke:#000;stroke-miterlimit:10;stroke-width:13px;}.cls-2{fill:#fff;}</style></defs><g id="Calque_2" data-name="Calque 2"><g id="Calque_1-2" data-name="Calque 1"><path class="cls-1" d="M109.63,58.07a52.23,52.23,0,0,1-.76,8.9,52.26,52.26,0,1,1,.76-8.9Z"/><polygon class="cls-2" points="67.57 41.61 48.57 41.61 39.07 58.07 48.57 74.52 67.57 74.52 77.07 58.07 67.57 41.61"/><path class="cls-2" d="M108.87,49.21H95.41l-9.5-16.45,7.22-12.5A51.39,51.39,0,0,1,108.87,49.21Z"/><path class="cls-2" d="M30.22,32.76l-9.5,16.45H7.26A51.45,51.45,0,0,1,23,20.26Z"/><path class="cls-2" d="M108.87,67A51.56,51.56,0,0,1,92,96.94l-7.8-13.52L93.65,67Z"/><path class="cls-2" d="M32,82.48,23.82,96.62A51.48,51.48,0,0,1,7.11,66H22.48Z"/><path class="cls-2" d="M75.35,9.47,67.57,23h-19L40.78,9.47a51.78,51.78,0,0,1,34.57,0Z"/><path class="cls-2" d="M75.35,106.66a51.78,51.78,0,0,1-34.57,0l7.79-13.48h19Z"/></g></g></svg>