<svg xmlns="http://www.w3.org/2000/svg" viewBox="0 0 130.61 92.24"><g id="Calque_2" data-name="Calque 2"><g id="Calque_1-2" data-name="Calque 1"><path d="M120.22,34.27l-5.74-23C113,5.83,109.29,0,102.87,0H27.74c-6.42,0-9.88,5.36-11.61,11.3l-5.74,23A13.79,13.79,0,0,0,0,47.64V76.1H7.35v7.74a8.33,8.33,0,0,0,8.33,8.33h.25a8.33,8.33,0,0,0,8.33-8.33V76.1h82.09v7.82a8.33,8.33,0,0,0,8.33,8.32h.25a8.33,8.33,0,0,0,8.33-8.32V76.1h7.35V47.64A13.79,13.79,0,0,0,120.22,34.27ZM20.41,61.5a9.73,9.73,0,0,1-1.34.09,9.51,9.51,0,0,1-4.8-1.28,9,9,0,0,1-.48-15.42,9.63,9.63,0,0,1,10.57,0,9.08,9.08,0,0,1,4.11,7.56A9.22,9.22,0,0,1,20.41,61.5Zm67,10.69H43.19V64.53H87.42Zm-24-39a.48.48,0,0,0-.21-.07L36.5,28.71a.67.67,0,0,0-.77.55.66.66,0,0,0,.55.77L55.4,33.18H15.62l6-21.76A11.88,11.88,0,0,1,32.75,3.9H97.86c5.56,0,9.81,3.66,11.07,7.31l6.06,22h-12.4a.4.4,0,0,0-.2-.07l-26.76-4.4a.68.68,0,0,0-.78.55.67.67,0,0,0,.56.77l19.11,3.15Zm52.77,27.18a9.46,9.46,0,0,1-4.7,1.23,8.43,8.43,0,0,1-1.24-.08,9.23,9.23,0,0,1-8.16-9.06,9.08,9.08,0,0,1,4.11-7.56,9.63,9.63,0,0,1,10.57,0,9,9,0,0,1-.58,15.47Z"/></g></g></svg>